<?xml version="1.0" encoding="utf-8"?>
<!-- Generator: Adobe Illustrator 24.0.0, SVG Export Plug-In . SVG Version: 6.00 Build 0)  -->
<svg version="1.1" id="Layer_1" xmlns="http://www.w3.org/2000/svg" xmlns:xlink="http://www.w3.org/1999/xlink" x="0px" y="0px"
	 viewBox="0 0 500 500" style="enable-background:new 0 0 500 500;" xml:space="preserve">
<style type="text/css">
	.st0{fill:#C1272D;}
</style>
<path class="st0" d="M396.62,0H208.97C94.04,0,0,94.04,0,208.97v187.65c0,3.78,0.21,7.52,0.61,11.2c1.2-7.83,3.47-16.04,6.79-24.63
	c13.14-31.15,36.41-60.41,69.8-87.79c29.18-22.09,59.08-38.34,89.7-48.75c2.65-0.87,14.92-4.88,36.81-12.01
	c0.82-2.13-4.87-6.6-17.09-13.44c-12.22-6.83-22.13-11.71-29.74-14.66s-13.78-3.33-18.49-1.15c-4.71,2.18-8.03,3.75-9.96,4.7
	c-1.92,0.95-3.09,1.34-3.51,1.18c-0.41-0.16-0.18-1.36,0.68-3.6c0.87-2.24,8.3-7.24,22.29-14.99c10.16-5.56,23.21-5.27,39.14,0.9
	c11.1,4.29,23.14,10.61,36.12,18.96c12.99,8.35,18.59,14.83,16.81,19.43l-0.14,0.36c-2.74,4.63-11.38,9.23-25.9,13.79
	c-43.93,5.53-84.92,23.79-122.98,54.8c-19.47,15.94-33.17,34.18-41.12,54.72c-7.95,20.54-7.27,38.61,2.02,54.21
	c9.3,15.61,26.04,28.09,50.24,37.46c17.47,6.76,35.42,10.52,53.85,11.27c29.79,1.22,58.15-4.57,85.08-17.35
	c4.35-2.12,10.06-4.93,17.11-8.44c6.31-3.67,10.35-5.16,12.12-4.48c0.07,0.17,0.28,0.32,0.64,0.45c0.35,0.14,0.32,0.74-0.09,1.8
	c-0.41,1.06-10.83,8.36-31.27,21.9c-44.41,29.61-86.07,45.46-124.99,47.54h176.5C405.96,500,500,405.96,500,291.03V103.38
	C500,46.52,453.48,0,396.62,0z M258.76,95.54c-0.22,1.27-0.47,2.26-0.74,2.97c-3.53,8.4-13.86,16.69-30.99,24.85
	c-4.75,2.1-8.56,2.66-11.44,1.68c-1.06-0.41-3.6-4.38-7.61-11.9c-4.01-7.52-7.93-13.86-11.77-19.01c-0.23-1.17-0.27-1.94-0.14-2.29
	c0.14-0.35,0.68-0.89,1.64-1.61l42.94-31.01c1.19-0.62,2.14-0.8,2.85-0.53c0.71,0.28,2.76,2.7,6.15,7.27
	C257,75.72,260.03,85.58,258.76,95.54z"/>
</svg>
